<?xml version="1.0" encoding="utf-8"?>
<!-- Generator: Adobe Illustrator 21.1.0, SVG Export Plug-In . SVG Version: 6.00 Build 0)  -->
<svg version="1.1" id="Layer_1" xmlns="http://www.w3.org/2000/svg" xmlns:xlink="http://www.w3.org/1999/xlink" x="0px" y="0px"
	 viewBox="0 0 300 300" style="enable-background:new 0 0 300 300;" xml:space="preserve">
<style type="text/css">
	.st0{fill:none;}
	.st1{fill:#FFFFFF;}
	.st2{fill:#F15B2B;}
	.st3{fill:#109C49;}
	.st4{fill:#8BC761;}
	.st5{fill:#046938;}
</style>
<g>
	<rect class="st0" width="300" height="300"/>
	<g>
		<path class="st1" d="M154,10.5C81.2,8.3,18.1,63.1,11.1,136.6c-3.6,37.1,7.5,73.4,31.2,102.1c23.7,28.8,57.2,46.6,94.3,50.1
			c37.1,3.6,73.4-7.5,102.1-31.2c28.8-23.7,46.6-57.2,50.1-94.3c7.4-76.6-48.9-144.9-125.5-152.2C160.2,10.8,157.1,10.6,154,10.5"/>
		<path class="st1" d="M150,300C67.3,300,0,232.7,0,150S67.3,0,150,0s150,67.3,150,150S232.7,300,150,300z M150,1.1
			C67.9,1.1,1.1,67.9,1.1,150S67.9,298.9,150,298.9S298.9,232.1,298.9,150S232.1,1.1,150,1.1z"/>
		<path class="st2" d="M61.6,149.6c1.4-47,42.1-83.9,90.9-82.5s87.3,40.7,85.9,87.7c-0.4,14.7-4.7,28.3-11.8,40.2
			c8.3-12.7,13.3-27.6,13.8-43.7c1.4-48-37.8-88-87.7-89.5C102.9,60.3,61.3,98,59.9,146c-0.5,16.1,3.6,31.3,11.2,44.4
			C64.6,178.2,61.2,164.3,61.6,149.6"/>
		<g>
			<g>
				<path class="st1" d="M40.5,72.3c3.2,0,3.2-5,0-5C37.2,67.3,37.2,72.3,40.5,72.3L40.5,72.3z"/>
			</g>
		</g>
		<path d="M98.1,37.1l2.3,3.3c0,0,6-3.5,15.6-6.4l1,3l-12.3,4.4l1.8,3.6c0,0,4.3-1.9,5.5,2.1c1.1,3.6-3.6,5.3-5.6,4.6l1.3,3.7
			c0,0,9.8-0.5,8.8-8.4c0,0-0.2-2.6-3.1-4.4L118,41l4.1,12.2l4-1.5l-6.3-18.3c0,0,7.9-3.2,15.7-3.2l0.6,4.5c0,0-10-0.6-8.3,7.3
			c0,0,0.6,2.6,3.7,1.9c0,0-1.2-4,0.8-4.5s4.7-0.8,4.7-0.8l1.6,10.9l4-0.2l-3-20.1l5.7-0.3l-0.3-4C144.9,24.9,119,24.9,98.1,37.1z"
			/>
		<path d="M153.6,24.5V29c0,0,6.1-1.2,6.1,1.9s-5.5,2.4-5.5,2.4v4.2c0,0,4.7-0.8,4.6,3.2c-0.2,4.4-6.4,1.9-8.1,0.4V46
			c0,0,11.5,4.3,12.1-4.6l4.5,0.5l-1.1,8.9h4.2l2.1-19.5c0,0,4.4,0.6,5.3,0.9L175,52h4.1l2.9-18.5c0,0,5.3,0.8,11.8,4.2
			c0,0-1.6,9.2-8.7,4c0,0-0.8,3.1,0.2,7.5s2,7.5,2,7.5l4.7,1.7L188.7,47c0,0,5.8,3,9-8.3l5.5,2.9L194,59.4l3.5,1.9l9.4-17.8l7.5,4.3
			l-4.9,7.3l-2.3-1.3c0,0-2.9-0.6-2.6,2.6c0,0,1.5,4.5,7.5,2.2l5.8-8.5l8,6.2c0,0-3,7.1-8.3,1.5c0,0-8.3,12.5,5.8,14.6l-4.4,5
			l3.5,2.6l13-15.1l2.6,2.6l2.8-3.2c0,0-22-19.9-32.2-24.2c0,0,2.3-10.4-6.1-12.7l-2.1,3.7c0,0,5.8,0.4,4,7.7c0,0-13.7-10.3-39-13
			l-0.6,4l3.6,0.4l-0.9,8.4l-5.3-0.6c0,0-0.1-2-2.2-2.1c0,0-0.1,0,0,0c2.3,0.5,9.1-6.5-0.8-11L153.6,24.5z"/>
		<path d="M241.5,72.1l3.2-2.5c0,0,7.7,7.6,16.7,25.9c0,0,5-2.8,1.3-7.8l3.9-2.4c0,0,5.4,8.8-3.3,14.1c0,0,13.8,22.8,11,59.6h-4.1
			v-3.7l-19.4,0.8l-0.3-4.2l19.7-0.7v-6.6l-19.8,1.1l-0.4-4.1l11.4-0.6c0,0,1.2-9.1-4.7-5.5c0,0-0.7-4.7,3.3-4.8
			c4-0.1,5.8,2,5.6,9.8l4.2-0.3c0,0-0.1-10-2.3-16.1l-18.9,5.4l-1.1-3.9l12-3.5l-1.2-4.2c0,0-5.7,5.6-11.5-0.6
			c-0.1-0.1-1.3-6.1-1.3-6.1l3.7-0.5c0,0,1,7.7,5.6,5.1c1.2-0.7,1.7-2.3,1.4-3.7l-0.5-2.3l3.8-0.9l4.1,12l3.4-0.8
			c0,0-4.5-14.6-7.2-19.1l-18.3,8.6l-1.8-3.6l18.6-8.7l-4.1-6.7l-17.1,9.5l-1.9-3.6l4.4-2.4c0,0-10.8-6.2,0.2-16.1
			c0,0,4.7,6.4,7.7,1.8L241.5,72.1z"/>
		<path class="st1" d="M240.8,83.3c0,0,4.5,5,9.4,0l2.2,3.9l-7.5,4c-0.1,0.1-0.2,0.1-0.4,0.1c-0.9,0.1-4.2,0.2-5.1-3.4
			C238.3,83.7,240.8,83.3,240.8,83.3z"/>
		<path class="st1" d="M229,59.3l3.3,2.8l-6.1,6.4c0,0-8.1,1.4-6.7-5.4c0,0,4.2,2.5,7.4-1L229,59.3z"/>
		<path d="M29.2,157.7c0,0,0.1-18.9,2.2-28.9c0,0,3,4.7,7.5,0c0,0-0.3,4.6,4.4,4.6c4.7-0.1,9.9-4.1,7.5-12.4l2.8,0.7l0.8-3.7
			l-18.7-5c0,0,0.9-4.7,2.2-6.5l18.4,7.3l1.4-3.7l-18.2-7.3c0,0,5.1-12.3,6.9-13.4l3.9,2.1c0,0-6.2,9.1-1,11
			c5.1,1.9,4.9-2.4,4.9-2.4s-3.6-0.7-3-1.9c0.6-1.2,2.5-4.5,2.5-4.5L64,99.3l1.9-3.8L48.7,86c0,0,2.9-5,3.9-6.1l5.4,3.3
			c0,0,0,0,0,0.1v0.1c0,0.1,0,0.2,0,0.2c0,0.1,0,0.2,0.1,0.3c0,0.1,0.1,0.2,0.1,0.3c0,0.1,0.1,0.3,0.1,0.4s0.1,0.3,0.2,0.4
			c0.1,0.1,0.1,0.3,0.2,0.4c0.1,0.2,0.2,0.3,0.3,0.4s0.2,0.3,0.3,0.4s0.2,0.3,0.4,0.4c0.1,0.1,0.3,0.3,0.5,0.4s0.3,0.2,0.5,0.3
			c0.2,0.1,0.4,0.2,0.6,0.3c0.2,0.1,0.5,0.1,0.7,0.2c0.3,0.1,0.5,0.1,0.8,0.1s0.6,0,0.9,0c0.3,0,0.7-0.1,1-0.1
			c0.2,0,0.4-0.1,0.6-0.2c0.1,0,0.2-0.1,0.3-0.2c0,0,0.1,0,0.1-0.1c0,0,0,0,0-0.1c0.1-0.2,0.3-0.5,0.4-0.7c0.1-0.3,0.3-0.5,0.4-0.8
			c0.1-0.2,0.2-0.3,0.3-0.5L67,85l-3.4-2.7l3.9-4.3l7.5,6l2.1-3.3L61.9,67.9c0,0,11.2-11.4,13.8-12.9l4.1,4.5c0,0-8.4-0.9-10.7,7.2
			l2.9,2.6c0,0,1.5-6.2,8.5-6.2c0,0-3,9.3-3.4,11.3l4,0.8l2.7-10l4.8,5.1l2.8-2.1L79,52.5l4.8-3.5l12.6,15.9l3.2-2.4L87.3,46.7
			l4.2-2.4l-2.2-3.6L85,43.3c0,0-0.6-1.1-0.7-1.1c-0.2-0.2-0.4-0.5-0.5-0.7c-0.2-0.2-0.4-0.4-0.6-0.6c-0.2-0.2-0.4-0.4-0.7-0.5
			c-0.2-0.1-0.4-0.3-0.7-0.4c-0.2-0.1-0.5-0.2-0.7-0.3s-0.5-0.2-0.7-0.2c-0.2-0.1-0.5-0.1-0.7-0.1s-0.4-0.1-0.7-0.1
			c-0.2,0-0.4,0-0.7,0c-0.2,0-0.4,0-0.6,0s-0.4,0-0.6,0.1c-0.2,0-0.4,0.1-0.5,0.1c-0.2,0-0.3,0.1-0.5,0.1c-0.1,0-0.3,0.1-0.4,0.2
			c-0.1,0.1-0.8,0.5-0.9,0.6s-0.2,0.2-0.4,0.3c-0.2,0.2-0.4,0.4-0.7,0.7c-0.2,0.2-0.4,0.4-0.5,0.7c-0.2,0.2-0.3,0.5-0.4,0.7
			s-0.2,0.5-0.3,0.7c-0.1,0.2-0.2,0.5-0.2,0.7c-0.1,0.2-0.1,0.5-0.2,0.7c0,0.2-0.1,0.5-0.1,0.7s0,0.4,0,0.7c0,0.2,0,0.4,0,0.6
			c0,0.2,0,0.4,0.1,0.6c0,0.2,0.1,0.4,0.1,0.6c0,0.2,0.1,0.4,0.1,0.5c0,0.2,0.1,0.3,0.2,0.5s0.1,0.3,0.2,0.4
			c0.1,0.1,0.1,0.3,0.2,0.4c0.1,0.1,0.1,0.2,0.2,0.3c0,0.1,3.7-2.5,3.7-2.5c-0.2-0.3-0.3-0.6-0.5-1c-0.1-0.4-0.2-0.8-0.2-1.3
			s0.2-0.9,0.6-1.3c0.2-0.2,0.5-0.4,0.7-0.5c0.3-0.2,0.7-0.4,1.1-0.4c0.2,0,0.4,0,0.5,0h0.1c0.3,0.1,0.6,0.3,0.8,0.4
			c0.3,0.2,0.6,0.5,0.8,0.8c0.3,0.3,0.5,0.6,0.7,0.9c0.1,0.1,0.2,0.2,0.2,0.3c0,0-38.1,21.5-52.4,73.9l4.4,0.5l0.6-3l10.3,2.4
			l0.1,0.1c0.1,0.1,0.2,0.2,0.3,0.3c0.4,0.3,0.7,0.7,1,1.1c0.4,0.5,0.7,1.1,1,1.6c0.3,0.7,0.4,1.4,0.4,2.1c-0.1,0.9-0.4,1.7-0.8,2.5
			c-0.2,0.3-0.4,0.6-0.7,0.9s-1.2,1.1-2.3,1c-0.4,0-0.7-0.1-1-0.3c-0.4-0.2-0.7-0.6-0.8-1c-0.3-0.6-0.4-1.3-0.5-1.9
			c-0.1-1,0-2,0.1-2.9l-2.9-1.2c0,0,0.4,6.7-4.6,4.3c0,0-1.8-0.5-1-4.3l-4-0.8c0,0-4.5,17.4-3.7,36.5h4.1
			C29.2,157.4,29.2,157.7,29.2,157.7z"/>
		<polygon class="st1" points="54.9,76.3 59.3,71.1 64.9,75.9 61.2,80.4 		"/>
		<g>
			<path class="st3" d="M92.6,209.3h2.9c0.4,0,0.8,0.2,0.9,0.5c0.2,0.4,0.4,0.9,0.1,1.5c-0.2,0.4-0.6,0.7-1.1,0.7h-1.7v2.4h1.8
				c0.4,0,0.8,0.2,1,0.6c0.2,0.4,0.4,1.1,0,1.9c-0.2,0.4-0.6,0.6-1,0.6h-2.3v-0.4h-0.6v2.5c0,0,6.2,1.6,6.6-3.6h3v4.9h2.6v-11.6h3.4
				v11.4h2.6v-11.4h5.1c0,0,0.8,4.3-3.2,3.8c0,0,1.7,8.2,8.5,4.7h-0.1l0.1,2.8H120v2.7c0,0,4.2-1.2,3.8,1c-0.4,2.2-4.7,0.4-7.6-1.9
				v3.1c0,0,0,0.1,0.1,0.1s0.2,0.1,0.2,0.1c0.2,0.1,0.5,0.2,0.7,0.3c0.3,0.1,0.7,0.3,1,0.4c0.4,0.2,0.8,0.3,1.2,0.4
				c0.4,0.1,0.9,0.3,1.4,0.4c0.5,0.1,0.9,0.2,1.4,0.2c0.4,0,0.9,0.1,1.3,0c0.4,0,0.8-0.1,1.2-0.3c0.4-0.1,0.7-0.4,1-0.6
				c0.3-0.3,0.5-0.7,0.7-1.1c0.2-0.5,0.2-1.1,0.2-1.7c0-0.4-0.1-0.8-0.2-1.1c-0.2-0.5-0.5-0.9-0.8-1.3c-0.6-0.5-1.3-0.8-2-0.9l0,0
				v-11.2h3.1v4.5c0,0.1,0,0.2,0,0.2c0.7,1.7,5.3,6.3,7.1,2.4h1.3v0.7c0,0.6,0.4,1,1,1h1.7v-2.8h3.9v5.7h2.5v-11.8h3.2v11.8h2.5
				v-11.8h8.6v2.3h-5.1c-0.4,0-0.8,0.2-1,0.6c-0.5,0.9-1.4,2.9,0.4,4.7h2c0,0-1.4-2.8,0.6-2.8s3,0,3,0v7.1h2.5v-11.9h2.2v-2.5h-63
				v2.3h1.8v4.8H99c0,0-0.6-1-1.7-0.9c0,0,0.1,0,0.1-0.1c0.1-0.1,0.3-0.2,0.4-0.3c0.2-0.2,0.4-0.3,0.5-0.5c0.2-0.2,0.4-0.5,0.5-0.7
				c0.1-0.3,0.2-0.6,0.3-1c0.1-2.7-1.6-3.2-2.3-3.4c-0.3-0.1-0.7-0.1-1-0.1c-0.5,0-0.9,0-1.4,0c-0.6,0-1.3,0-1.9,0.1L92.6,209.3z"/>
			<path class="st1" d="M129.3,210.8l3.8,3.4v1C133.1,215.3,129,216.5,129.3,210.8z"/>
			<polygon class="st1" points="135.1,209.3 135.1,213.5 134.8,213.5 129.7,209.3 			"/>
			<rect x="137.9" y="209.3" class="st1" width="3.8" height="3.6"/>
			<path class="st3" d="M169.9,209.3v4.3c0,0-1-0.3-1,1.2v0.3c0,0.4,0,0.9,0,1.6v0.1c0.3,2.5,3.5,2.2,3.5,0.5v-1.8h3.9v5.4h2.5
				v-11.5h3v11.5h2.6v-11.5h6.4c0,0,1.5,4.9-3,4.2v2.8l3.6,4.6h3.5l-4.7-5.5c0,0,3.7,0.8,3.4-6.1h9.4v1.8c0,0-7.1-0.9-7,5.1
				c0,0-0.2,4.9,5.3,4.6v-2.3c0,0-3.1,0.2-2.8-2.8c0.2-2.2,1.2-2.1,4.5-2.1v7.2h2.5v-11.6h2.4v-2.5h-31.7v6.4h-3.4h-0.5
				c0,0,0-3.1,0-4.9c0,0-0.6-2.2-4.7-1.2v2.2H169.9z"/>
			<path class="st1" d="M118.5,209.3h2.6v5.4c0,0-3.2,3.4-5.1-0.8c0,0,1.8,0.7,2.5-1.5V209.3z"/>
		</g>
		<g>
			<path d="M154.7,264.5l4.7-0.5l0.1,1.5c0.1,1.1,0.4,1.9,0.7,2.4c0.4,0.5,0.9,0.7,1.6,0.6c0.8-0.1,1.3-0.4,1.5-1s0.3-1.7,0.1-3.4
				l-1.4-14l5-0.5l1.4,13.8c0.3,3.2,0,5.6-1,7c-1,1.5-2.7,2.4-5.2,2.6c-2.3,0.2-4.1-0.3-5.3-1.5c-1.3-1.3-2-3.3-2.3-6.1
				c0-0.1,0-0.3,0-0.5C154.7,264.7,154.7,264.6,154.7,264.5"/>
			<path d="M119,268l3.7-22l7,1.2l0.8,11.1c0.1,1,0.1,1.9,0.2,2.9c0,0.9,0.1,1.8,0.1,2.7c0.3-0.9,0.7-1.8,1.1-2.7
				c0.4-0.9,0.8-2,1.3-3l4.2-9.7l6.9,1.2l-3.7,22l-4.6-0.8l1.7-9.7c0.1-0.7,0.3-1.6,0.5-2.9c0.2-1.2,0.5-2.7,0.9-4.3l-6.7,16.3
				l-5-0.8l-0.8-17.6c-0.3,2-0.5,3.7-0.7,5.3c-0.2,1.6-0.4,2.8-0.6,3.7l-1.4,8L119,268z"/>
			<path d="M95.1,258.9l9.2-20.3l8.3,3.8c2.1,1,3.5,2.2,4.1,3.8s0.4,3.4-0.5,5.5c-1,2.2-2.3,3.6-3.9,4.2c-1.6,0.7-3.4,0.5-5.5-0.4
				l-3.8-1.7l-3.3,7.2L95.1,258.9z M104.9,249.7l3.1,1.4c0.8,0.4,1.6,0.5,2.1,0.2c0.6-0.2,1.1-0.7,1.4-1.6c0.4-0.8,0.4-1.5,0.2-2.1
				c-0.2-0.6-0.8-1.1-1.6-1.5l-3-1.4L104.9,249.7z"/>
			<path d="M174,248.7l5.4-1.6l13.2,19.3l-5.3,1.6l-2.3-3.6l-6.4,1.9l0.1,4.2l-5.1,1.5L174,248.7z M178.3,261.6l4.2-1.3l-4.3-6.7
				L178.3,261.6z"/>
			<polygon points="199.3,263.7 196.2,255.9 184.5,245.7 189.8,243.5 196.6,250.4 196.6,240.7 202,238.5 200.8,254 204,261.8 			"/>
			<rect x="147.2" y="258" transform="matrix(1 -1.423693e-03 1.423693e-03 1 -0.3694 0.2155)" width="8" height="3.1"/>
		</g>
		<g>
			<path class="st4" d="M153.2,79.9c0,0-15.6,13.1-16.3,35.6s14.2,36.2,14.2,36.2s15.6-12.9,16.3-35.3
				C168,93.9,153.2,79.9,153.2,79.9"/>
			<path class="st3" d="M101.8,99.5c0,0-1.8,20.3,13.6,36.7s35.6,15.6,35.6,15.6s2-20.1-13.5-36.5C122.2,98.9,101.8,99.5,101.8,99.5
				"/>
			<path class="st5" d="M79.3,149.6c0,0,13.1,15.6,35.6,16.3s36.2-14.2,36.2-14.2s-12.9-15.6-35.3-16.3
				C93.3,134.8,79.3,149.6,79.3,149.6"/>
			<path class="st3" d="M203.4,102.5c0,0-20.3-1.8-36.7,13.6s-15.6,35.6-15.6,35.6s20.1,2,36.5-13.5
				C204,122.8,203.4,102.5,203.4,102.5"/>
			<path class="st5" d="M222.9,153.9c0,0-13.1-15.6-35.6-16.3s-36.2,14.2-36.2,14.2s12.9,15.6,35.3,16.3
				C208.9,168.7,222.9,153.9,222.9,153.9"/>
			<path class="st2" d="M168.1,171.2l-15.5,17.2c-1.4,1.6-3.6,1.5-5-0.1l-14.5-18.1c-3.1-3.9-1.9-7,2.6-6.8l30.1,0.9
				C170.5,164.3,171.5,167.5,168.1,171.2"/>
			<path class="st2" d="M160.3,152.1c-0.1,5-4.4,9-9.4,8.9s-9-4.4-8.9-9.4s4.4-9,9.4-8.9C156.5,142.9,160.4,147.1,160.3,152.1"/>
			<path class="st2" d="M180.7,190.2c-0.1,4.4-6.1,7.9-13.3,7.6c-7.2-0.2-18.9-8.6-18.9-8.6s12.2-7.7,19.4-7.5
				C175.1,182,180.9,185.7,180.7,190.2"/>
			<path class="st2" d="M119.4,188.4c0.1-4.4,6.1-7.9,13.3-7.6c7.2,0.2,18.9,8.6,18.9,8.6s-12.2,7.7-19.4,7.5
				C125,196.6,119.2,192.8,119.4,188.4"/>
		</g>
		<path d="M29.2,151.5c0,0,11.9,1.9,13.1-2.9l6.2,5.9v-5.9l-6.3-6.3h7.3v-4.1l-19.8-1.7L29.2,151.5z"/>
		<path class="st1" d="M29.7,140.9h7.7c0,0,3,1.2,2.4,3.9s-3,3-3,3h-7.1C29.7,147.8,29.7,140.9,29.7,140.9z"/>
		<ellipse transform="matrix(0.2465 -0.9691 0.9691 0.2465 -19.4948 101.2482)" cx="55.4" cy="63.2" rx="2" ry="2"/>
	</g>
</g>
</svg>
