<?xml version="1.0" encoding="utf-8"?><svg version="1.1" id="Layer_1" fill="#13C5DD" xmlns="http://www.w3.org/2000/svg" xmlns:xlink="http://www.w3.org/1999/xlink" x="0px" y="0px" viewBox="0 0 100.74 123.12" style="enable-background:new 0 0 100.74 123.12" xml:space="preserve"><style type="text/css">.st0{fill-rule:evenodd;clip-rule:evenodd;}</style><g><path class="st0" d="M25.85,39.9c7.63,8.19,19.42-2.54,30.91-5.54c6.52-1.71,10.03,9.87,18.44,5.64l0.79,9.16 c5.23-1.18,1.51,14.95-3.03,14.11c-1.49,4.93-2.06,8.42-4.5,11.69c-4.58,6.12-11.98,9.24-17.91,9.11 c-5.6-0.12-12.72-3.2-17.28-8.84c-2.81-3.47-3.72-7.29-5.46-12.62c-4.83,1.44-8.07-14.93-2.82-13.53L25.85,39.9L25.85,39.9z M58.98,14.34v2.02c0,0.94-0.77,1.7-1.7,1.7h-3.43v3.43c0,0.94-0.77,1.7-1.7,1.7h-2.02c-0.94,0-1.7-0.77-1.7-1.7v-3.43h-3.43 c-0.94,0-1.7-0.77-1.7-1.7v-2.02c0-0.94,0.77-1.7,1.7-1.7h3.43V9.2c0-0.94,0.77-1.7,1.7-1.7h2.02c0.94,0,1.7,0.77,1.7,1.7v3.43 h3.43C58.21,12.64,58.98,13.4,58.98,14.34L58.98,14.34z M38.96,0H63.3c0.84,0,1.72,0.12,2.59,0.35c1.88,0.49,3.65,1.5,4.97,2.84 c1.49,1.53,2.45,3.48,2.45,5.66c0,0.59-0.08,1.22-0.25,1.88l-2.27,8.68c0.69,0.75,1.35,1.56,1.96,2.43 c13.43,19.08,17.89,53.44-4.17,57.87c2.93,1.89,6.52,2.21,10.21,2c11.11,0.28,18.85,5.04,21.96,15.98v19.86 c-0.01,2.89-1.74,4.87-5.87,5.57H55.12l9.8-42.73c-1.25,0.96-2.57,1.79-3.92,2.48c-3.47,1.77-7.19,2.63-10.48,2.56 c-3.11-0.07-6.65-0.99-10-2.7C39,81.95,37.51,81,36.11,79.89l-0.4-0.09l9.91,43.31H5.87c-4.13-0.7-5.85-2.68-5.87-5.57V97.69 c3.1-10.95,10.85-15.7,21.96-15.98c4.01,0.23,7.9-0.19,10.98-2.54c-11.35-2.81-16.16-6.83-16.16-23.06v-5.54 c0.71-12.14,3.77-22.89,10.31-30.75c0.97-1.17,2.21-2.26,3.66-3.25l-1.53-5.84c-0.17-0.66-0.25-1.29-0.25-1.88 c0-2.18,0.95-4.13,2.45-5.66c1.31-1.34,3.09-2.35,4.96-2.84C37.24,0.12,38.11,0,38.96,0L38.96,0z M38.96,3.43H63.3 c3.54,0,7.33,3.01,6.43,6.43l-1.81,6.91l-1.22,4.65c-0.89,3.42-2.9,6.43-6.43,6.43h-18.3c-3.53,0-5.54-3.01-6.43-6.43l-1.74-6.66 l-1.28-4.91C31.63,6.44,35.42,3.43,38.96,3.43L38.96,3.43z M69.82,107.5h12.9v3.09h-12.9V107.5L69.82,107.5z M48.89,123.12 l-6.57-21.8c5.15,1.09,10.56,1.2,16.32,0l-6.27,21.8H48.89L48.89,123.12z M47.79,64.3c-0.31-0.29-0.33-0.79-0.05-1.11 c0.28-0.32,0.75-0.34,1.06-0.05c0.54,0.52,1.06,0.77,1.55,0.76c0.5-0.01,1.03-0.27,1.58-0.78c0.31-0.28,0.79-0.25,1.06,0.08 c0.27,0.33,0.24,0.83-0.08,1.11c-0.82,0.75-1.67,1.15-2.55,1.16C49.48,65.49,48.63,65.11,47.79,64.3L47.79,64.3z M67.42,49.13 c0.32,0.28,0.36,0.78,0.1,1.11c-0.26,0.34-0.74,0.38-1.06,0.11c-1.43-1.25-4.25-0.71-6.68-0.25c-1.27,0.24-2.44,0.46-3.37,0.43 c-0.41-0.02-0.74-0.38-0.72-0.82c0.01-0.44,0.36-0.78,0.78-0.76c0.77,0.03,1.86-0.18,3.05-0.4C62.26,48.02,65.46,47.41,67.42,49.13 L67.42,49.13z M41.36,55.98c0.07,0.21,0.11,0.43,0.11,0.66c0,1.07-0.82,1.93-1.83,1.93c-1.01,0-1.83-0.86-1.83-1.93 c0-0.38,0.1-0.74,0.28-1.03c-1.01,0.06-2.02,0.29-3.04,0.71c-0.35,0.15-0.74-0.08-0.86-0.5c-0.12-0.42,0.07-0.89,0.42-1.03 c1.36-0.56,2.73-0.82,4.11-0.81c1.37,0.01,2.73,0.29,4.09,0.81c0.36,0.13,0.55,0.59,0.44,1.02c-0.11,0.43-0.49,0.67-0.85,0.53 C42.06,56.2,41.71,56.08,41.36,55.98L41.36,55.98z M59.45,55.81c-0.06,0.2-0.1,0.41-0.1,0.63c0,1.07,0.82,1.93,1.83,1.93 s1.83-0.86,1.83-1.93c0-0.34-0.08-0.66-0.23-0.93c1,0.07,2,0.27,3.02,0.62c0.36,0.12,0.73-0.13,0.83-0.56 c0.1-0.43-0.11-0.88-0.46-1c-1.37-0.47-2.73-0.71-4.1-0.7c-1.36,0-2.71,0.24-4.05,0.71c-0.36,0.12-0.56,0.57-0.46,1 c0.1,0.43,0.48,0.68,0.83,0.55C58.75,56.01,59.1,55.9,59.45,55.81L59.45,55.81z M34.36,50.55c-0.32,0.28-0.79,0.23-1.06-0.11 c-0.26-0.34-0.22-0.83,0.1-1.11c1.96-1.71,5.16-1.11,7.9-0.58c1.19,0.23,2.28,0.43,3.05,0.4c0.41-0.02,0.76,0.33,0.78,0.76 c0.01,0.44-0.31,0.8-0.72,0.82c-0.93,0.03-2.1-0.19-3.37-0.43C38.62,49.84,35.79,49.3,34.36,50.55L34.36,50.55z M43.88,70.8 c-0.32-0.27-0.37-0.77-0.11-1.11s0.73-0.39,1.05-0.12c2.06,1.74,3.98,2.59,5.79,2.58c1.77-0.01,3.47-0.86,5.1-2.53 c0.3-0.3,0.77-0.3,1.06,0.02c0.29,0.31,0.28,0.81-0.02,1.12c-1.91,1.97-3.96,2.97-6.14,2.98C48.45,73.74,46.21,72.77,43.88,70.8 L43.88,70.8z"/></g></svg>